# xmcd
# 
# Track frame offsets:
#     150
#     18328
#     34253
#     52028
#     67228
#     82778
#     98202
#     114153
#     131628
#     149928
#     165903
#     178853
#     193203
#     215678
#     251203
#     268678
#     288753
# 
# Disc length: 4272
# 
# Revision: 3
# Processed by: cddbd v1.5.2PL0 Copyright (c) Steve Scherf et al.
# Submitted via: fre:ac v1.0.17
# 
DISCID=0610ae11
DTITLE=Various Artist - Kult³ Disconigts - CD 2
DYEAR=2007
DGENRE=Disco
TTITLE0=Barry White - Can't Get Enough Of Your Love, Babe (Single Version)
TTITLE1=Secret Service - Ten O'Clock Postman
TTITLE2=Diana Ross - I'm Comming Out (Single Version)
TTITLE3=David Christie - Saddle Up (Radio Edit)
TTITLE4=Commodores - Brick House (Album Version)
TTITLE5=Peaches and Herb - Shake Your Groove Thing (Single Version)
TTITLE6=Yarbrough and Peoples - Don't Stop The Music
TTITLE7=Johnny Bristol - Hang On In There Baby (Album Version)
TTITLE8=Four Tops - Don't Walk Away (Album Version)
TTITLE9=Edwin Starr - Contact - UK 7" (Single Version)
TTITLE10=Tom Jones - She's A Lady
TTITLE11=Roy Ayers - Running Away (Single Version)
TTITLE12=The Brothers Johnson - Strawberry Letter 23 (Album Version)
TTITLE13=Ohio Players - Skin Tight (Album Version)
TTITLE14=The Temptations - Psychedelic Shack (Album Version)
TTITLE15=Parliament - Flashlight (Album Edit)
TTITLE16=Tarracco - Sultana
EXTD=
EXTT0=
EXTT1=
EXTT2=
EXTT3=
EXTT4=
EXTT5=
EXTT6=
EXTT7=
EXTT8=
EXTT9=
EXTT10=
EXTT11=
EXTT12=
EXTT13=
EXTT14=
EXTT15=
EXTT16=
PLAYORDER=
